<svg width="1259" height="474" viewBox="0 0 1259 474" fill="none" xmlns="http://www.w3.org/2000/svg">
<path d="M312.6 4.79999V292.5H391.7V363.2H312.6V464H230.7V363.2H0.400001V300.9L232.8 4.79999H312.6ZM98.4 300.9H234.9V127.3L98.4 300.9ZM626.509 0.599958C654.509 0.599958 679.942 5.49996 702.809 15.3C726.142 24.6333 745.975 39.1 762.309 58.7C797.775 100.233 815.509 159.733 815.509 237.2C815.509 314.667 797.775 374.167 762.309 415.7C729.642 454.433 684.609 473.8 627.209 473.8C569.342 473.8 523.842 454.433 490.709 415.7C455.709 375.1 438.209 315.6 438.209 237.2C438.209 158.8 455.709 99.3 490.709 58.7C523.842 19.9666 569.109 0.599958 626.509 0.599958ZM730.109 237.2C730.109 184.933 721.009 145.033 702.809 117.5C685.075 89.5 659.642 75.5 626.509 75.5C593.842 75.5 568.409 89.5 550.209 117.5C532.475 145.033 523.609 184.933 523.609 237.2C523.609 289.467 532.475 329.367 550.209 356.9C568.409 383.967 593.842 397.5 626.509 397.5C659.642 397.5 685.075 383.967 702.809 356.9C721.009 329.367 730.109 289.467 730.109 237.2ZM1179.88 4.79999V292.5H1258.98V363.2H1179.88V464H1097.98V363.2H867.677V300.9L1100.08 4.79999H1179.88ZM965.677 300.9H1102.18V127.3L965.677 300.9Z" fill="black" fill-opacity="0.5"/>
</svg>
